<svg width="632" height="112" viewBox="0 0 632 112" fill="none" xmlns="http://www.w3.org/2000/svg">
<g filter="url(#filter0_d_1_6127)">
<circle cx="56" cy="46" r="40" fill="white"/>
</g>
<path d="M73.9768 42.4093H72.5V42.3332H56V49.6665H66.3611C64.8495 53.9354 60.7878 56.9998 56 56.9998C49.9253 56.9998 45 52.0746 45 45.9998C45 39.9251 49.9253 34.9998 56 34.9998C58.8041 34.9998 61.3552 36.0577 63.2976 37.7856L68.4832 32.6C65.2089 29.5484 60.829 27.6665 56 27.6665C45.8754 27.6665 37.6667 35.8753 37.6667 45.9998C37.6667 56.1244 45.8754 64.3332 56 64.3332C66.1246 64.3332 74.3334 56.1244 74.3334 45.9998C74.3334 44.7706 74.2069 43.5707 73.9768 42.4093Z" fill="#FFC107"/>
<path d="M39.7805 37.4666L45.8039 41.884C47.4338 37.8488 51.3809 34.9998 56 34.9998C58.8041 34.9998 61.3552 36.0577 63.2976 37.7856L68.4832 32.6C65.2089 29.5484 60.829 27.6665 56 27.6665C48.9582 27.6665 42.8514 31.6421 39.7805 37.4666Z" fill="#FF3D00"/>
<path d="M56 64.3335C60.7355 64.3335 65.0384 62.5212 68.2916 59.5741L62.6174 54.7726C60.7149 56.2195 58.3902 57.002 56 57.0001C51.2315 57.0001 47.1826 53.9596 45.6573 49.7163L39.6788 54.3226C42.7129 60.2598 48.8748 64.3335 56 64.3335Z" fill="#4CAF50"/>
<path d="M73.9768 42.4096H72.5V42.3335H56V49.6668H66.3611C65.638 51.6985 64.3356 53.4739 62.6147 54.7736L62.6174 54.7717L68.2916 59.5732C67.8901 59.9381 74.3333 55.1668 74.3333 46.0002C74.3333 44.7709 74.2068 43.571 73.9768 42.4096Z" fill="#1976D2"/>
<g filter="url(#filter1_d_1_6127)">
<circle cx="160" cy="46" r="40" fill="white"/>
</g>
<path d="M177.977 42.4093H176.5V42.3332H160V49.6665H170.361C168.85 53.9354 164.788 56.9998 160 56.9998C153.925 56.9998 149 52.0746 149 45.9998C149 39.9251 153.925 34.9998 160 34.9998C162.804 34.9998 165.355 36.0577 167.298 37.7856L172.483 32.6C169.209 29.5484 164.829 27.6665 160 27.6665C149.875 27.6665 141.667 35.8753 141.667 45.9998C141.667 56.1244 149.875 64.3332 160 64.3332C170.125 64.3332 178.333 56.1244 178.333 45.9998C178.333 44.7706 178.207 43.5707 177.977 42.4093Z" fill="#FFC107"/>
<path d="M143.781 37.4666L149.804 41.884C151.434 37.8488 155.381 34.9998 160 34.9998C162.804 34.9998 165.355 36.0577 167.298 37.7856L172.483 32.6C169.209 29.5484 164.829 27.6665 160 27.6665C152.958 27.6665 146.851 31.6421 143.781 37.4666Z" fill="#FF3D00"/>
<path d="M160 64.3335C164.736 64.3335 169.038 62.5212 172.292 59.5741L166.617 54.7726C164.715 56.2195 162.39 57.002 160 57.0001C155.232 57.0001 151.183 53.9596 149.657 49.7163L143.679 54.3226C146.713 60.2598 152.875 64.3335 160 64.3335Z" fill="#4CAF50"/>
<path d="M177.977 42.4096H176.5V42.3335H160V49.6668H170.361C169.638 51.6985 168.336 53.4739 166.615 54.7736L166.617 54.7717L172.292 59.5732C171.89 59.9381 178.333 55.1668 178.333 46.0002C178.333 44.7709 178.207 43.571 177.977 42.4096Z" fill="#1976D2"/>
<g filter="url(#filter2_d_1_6127)">
<circle cx="264" cy="46" r="40" fill="white"/>
</g>
<path d="M281.977 42.4093H280.5V42.3332H264V49.6665H274.361C272.85 53.9354 268.788 56.9998 264 56.9998C257.925 56.9998 253 52.0746 253 45.9998C253 39.9251 257.925 34.9998 264 34.9998C266.804 34.9998 269.355 36.0577 271.298 37.7856L276.483 32.6C273.209 29.5484 268.829 27.6665 264 27.6665C253.875 27.6665 245.667 35.8753 245.667 45.9998C245.667 56.1244 253.875 64.3332 264 64.3332C274.125 64.3332 282.333 56.1244 282.333 45.9998C282.333 44.7706 282.207 43.5707 281.977 42.4093Z" fill="#FFC107"/>
<path d="M247.781 37.4666L253.804 41.884C255.434 37.8488 259.381 34.9998 264 34.9998C266.804 34.9998 269.355 36.0577 271.298 37.7856L276.483 32.6C273.209 29.5484 268.829 27.6665 264 27.6665C256.958 27.6665 250.851 31.6421 247.781 37.4666Z" fill="#FF3D00"/>
<path d="M264 64.3335C268.736 64.3335 273.038 62.5212 276.292 59.5741L270.617 54.7726C268.715 56.2195 266.39 57.002 264 57.0001C259.232 57.0001 255.183 53.9596 253.657 49.7163L247.679 54.3226C250.713 60.2598 256.875 64.3335 264 64.3335Z" fill="#4CAF50"/>
<path d="M281.977 42.4096H280.5V42.3335H264V49.6668H274.361C273.638 51.6985 272.336 53.4739 270.615 54.7736L270.617 54.7717L276.292 59.5732C275.89 59.9381 282.333 55.1668 282.333 46.0002C282.333 44.7709 282.207 43.571 281.977 42.4096Z" fill="#1976D2"/>
<g filter="url(#filter3_d_1_6127)">
<circle cx="368" cy="46" r="40" fill="white"/>
</g>
<path d="M385.977 42.4093H384.5V42.3332H368V49.6665H378.361C376.85 53.9354 372.788 56.9998 368 56.9998C361.925 56.9998 357 52.0746 357 45.9998C357 39.9251 361.925 34.9998 368 34.9998C370.804 34.9998 373.355 36.0577 375.298 37.7856L380.483 32.6C377.209 29.5484 372.829 27.6665 368 27.6665C357.875 27.6665 349.667 35.8753 349.667 45.9998C349.667 56.1244 357.875 64.3332 368 64.3332C378.125 64.3332 386.333 56.1244 386.333 45.9998C386.333 44.7706 386.207 43.5707 385.977 42.4093Z" fill="#FFC107"/>
<path d="M351.781 37.4666L357.804 41.884C359.434 37.8488 363.381 34.9998 368 34.9998C370.804 34.9998 373.355 36.0577 375.298 37.7856L380.483 32.6C377.209 29.5484 372.829 27.6665 368 27.6665C360.958 27.6665 354.851 31.6421 351.781 37.4666Z" fill="#FF3D00"/>
<path d="M368 64.3335C372.736 64.3335 377.038 62.5212 380.292 59.5741L374.617 54.7726C372.715 56.2195 370.39 57.002 368 57.0001C363.232 57.0001 359.183 53.9596 357.657 49.7163L351.679 54.3226C354.713 60.2598 360.875 64.3335 368 64.3335Z" fill="#4CAF50"/>
<path d="M385.977 42.4096H384.5V42.3335H368V49.6668H378.361C377.638 51.6985 376.336 53.4739 374.615 54.7736L374.617 54.7717L380.292 59.5732C379.89 59.9381 386.333 55.1668 386.333 46.0002C386.333 44.7709 386.207 43.571 385.977 42.4096Z" fill="#1976D2"/>
<g filter="url(#filter4_d_1_6127)">
<circle cx="472" cy="46" r="40" fill="white"/>
</g>
<path d="M489.977 42.4093H488.5V42.3332H472V49.6665H482.361C480.849 53.9354 476.788 56.9998 472 56.9998C465.925 56.9998 461 52.0746 461 45.9998C461 39.9251 465.925 34.9998 472 34.9998C474.804 34.9998 477.355 36.0577 479.298 37.7856L484.483 32.6C481.209 29.5484 476.829 27.6665 472 27.6665C461.875 27.6665 453.667 35.8753 453.667 45.9998C453.667 56.1244 461.875 64.3332 472 64.3332C482.125 64.3332 490.333 56.1244 490.333 45.9998C490.333 44.7706 490.207 43.5707 489.977 42.4093Z" fill="#FFC107"/>
<path d="M455.781 37.4666L461.804 41.884C463.434 37.8488 467.381 34.9998 472 34.9998C474.804 34.9998 477.355 36.0577 479.298 37.7856L484.483 32.6C481.209 29.5484 476.829 27.6665 472 27.6665C464.958 27.6665 458.851 31.6421 455.781 37.4666Z" fill="#FF3D00"/>
<path d="M472 64.3335C476.735 64.3335 481.038 62.5212 484.292 59.5741L478.617 54.7726C476.715 56.2195 474.39 57.002 472 57.0001C467.231 57.0001 463.183 53.9596 461.657 49.7163L455.679 54.3226C458.713 60.2598 464.875 64.3335 472 64.3335Z" fill="#4CAF50"/>
<path d="M489.977 42.4096H488.5V42.3335H472V49.6668H482.361C481.638 51.6985 480.336 53.4739 478.615 54.7736L478.617 54.7717L484.292 59.5732C483.89 59.9381 490.333 55.1668 490.333 46.0002C490.333 44.7709 490.207 43.571 489.977 42.4096Z" fill="#1976D2"/>
<g filter="url(#filter5_d_1_6127)">
<circle cx="576" cy="46" r="40" fill="white"/>
</g>
<path d="M593.977 42.4093H592.5V42.3332H576V49.6665H586.361C584.849 53.9354 580.788 56.9998 576 56.9998C569.925 56.9998 565 52.0746 565 45.9998C565 39.9251 569.925 34.9998 576 34.9998C578.804 34.9998 581.355 36.0577 583.298 37.7856L588.483 32.6C585.209 29.5484 580.829 27.6665 576 27.6665C565.875 27.6665 557.667 35.8753 557.667 45.9998C557.667 56.1244 565.875 64.3332 576 64.3332C586.125 64.3332 594.333 56.1244 594.333 45.9998C594.333 44.7706 594.207 43.5707 593.977 42.4093Z" fill="#FFC107"/>
<path d="M559.781 37.4666L565.804 41.884C567.434 37.8488 571.381 34.9998 576 34.9998C578.804 34.9998 581.355 36.0577 583.298 37.7856L588.483 32.6C585.209 29.5484 580.829 27.6665 576 27.6665C568.958 27.6665 562.851 31.6421 559.781 37.4666Z" fill="#FF3D00"/>
<path d="M576 64.3335C580.735 64.3335 585.038 62.5212 588.292 59.5741L582.617 54.7726C580.715 56.2195 578.39 57.002 576 57.0001C571.231 57.0001 567.183 53.9596 565.657 49.7163L559.679 54.3226C562.713 60.2598 568.875 64.3335 576 64.3335Z" fill="#4CAF50"/>
<path d="M593.977 42.4096H592.5V42.3335H576V49.6668H586.361C585.638 51.6985 584.336 53.4739 582.615 54.7736L582.617 54.7717L588.292 59.5732C587.89 59.9381 594.333 55.1668 594.333 46.0002C594.333 44.7709 594.207 43.571 593.977 42.4096Z" fill="#1976D2"/>
<defs>
<filter id="filter0_d_1_6127" x="0" y="0" width="112" height="112" filterUnits="userSpaceOnUse" color-interpolation-filters="sRGB">
<feFlood flood-opacity="0" result="BackgroundImageFix"/>
<feColorMatrix in="SourceAlpha" type="matrix" values="0 0 0 0 0 0 0 0 0 0 0 0 0 0 0 0 0 0 127 0" result="hardAlpha"/>
<feOffset dy="10"/>
<feGaussianBlur stdDeviation="8"/>
<feComposite in2="hardAlpha" operator="out"/>
<feColorMatrix type="matrix" values="0 0 0 0 0.12549 0 0 0 0 0.317647 0 0 0 0 0.537255 0 0 0 0.06 0"/>
<feBlend mode="normal" in2="BackgroundImageFix" result="effect1_dropShadow_1_6127"/>
<feBlend mode="normal" in="SourceGraphic" in2="effect1_dropShadow_1_6127" result="shape"/>
</filter>
<filter id="filter1_d_1_6127" x="104" y="0" width="112" height="112" filterUnits="userSpaceOnUse" color-interpolation-filters="sRGB">
<feFlood flood-opacity="0" result="BackgroundImageFix"/>
<feColorMatrix in="SourceAlpha" type="matrix" values="0 0 0 0 0 0 0 0 0 0 0 0 0 0 0 0 0 0 127 0" result="hardAlpha"/>
<feOffset dy="10"/>
<feGaussianBlur stdDeviation="8"/>
<feComposite in2="hardAlpha" operator="out"/>
<feColorMatrix type="matrix" values="0 0 0 0 0.12549 0 0 0 0 0.317647 0 0 0 0 0.537255 0 0 0 0.06 0"/>
<feBlend mode="normal" in2="BackgroundImageFix" result="effect1_dropShadow_1_6127"/>
<feBlend mode="normal" in="SourceGraphic" in2="effect1_dropShadow_1_6127" result="shape"/>
</filter>
<filter id="filter2_d_1_6127" x="208" y="0" width="112" height="112" filterUnits="userSpaceOnUse" color-interpolation-filters="sRGB">
<feFlood flood-opacity="0" result="BackgroundImageFix"/>
<feColorMatrix in="SourceAlpha" type="matrix" values="0 0 0 0 0 0 0 0 0 0 0 0 0 0 0 0 0 0 127 0" result="hardAlpha"/>
<feOffset dy="10"/>
<feGaussianBlur stdDeviation="8"/>
<feComposite in2="hardAlpha" operator="out"/>
<feColorMatrix type="matrix" values="0 0 0 0 0.12549 0 0 0 0 0.317647 0 0 0 0 0.537255 0 0 0 0.06 0"/>
<feBlend mode="normal" in2="BackgroundImageFix" result="effect1_dropShadow_1_6127"/>
<feBlend mode="normal" in="SourceGraphic" in2="effect1_dropShadow_1_6127" result="shape"/>
</filter>
<filter id="filter3_d_1_6127" x="312" y="0" width="112" height="112" filterUnits="userSpaceOnUse" color-interpolation-filters="sRGB">
<feFlood flood-opacity="0" result="BackgroundImageFix"/>
<feColorMatrix in="SourceAlpha" type="matrix" values="0 0 0 0 0 0 0 0 0 0 0 0 0 0 0 0 0 0 127 0" result="hardAlpha"/>
<feOffset dy="10"/>
<feGaussianBlur stdDeviation="8"/>
<feComposite in2="hardAlpha" operator="out"/>
<feColorMatrix type="matrix" values="0 0 0 0 0.12549 0 0 0 0 0.317647 0 0 0 0 0.537255 0 0 0 0.06 0"/>
<feBlend mode="normal" in2="BackgroundImageFix" result="effect1_dropShadow_1_6127"/>
<feBlend mode="normal" in="SourceGraphic" in2="effect1_dropShadow_1_6127" result="shape"/>
</filter>
<filter id="filter4_d_1_6127" x="416" y="0" width="112" height="112" filterUnits="userSpaceOnUse" color-interpolation-filters="sRGB">
<feFlood flood-opacity="0" result="BackgroundImageFix"/>
<feColorMatrix in="SourceAlpha" type="matrix" values="0 0 0 0 0 0 0 0 0 0 0 0 0 0 0 0 0 0 127 0" result="hardAlpha"/>
<feOffset dy="10"/>
<feGaussianBlur stdDeviation="8"/>
<feComposite in2="hardAlpha" operator="out"/>
<feColorMatrix type="matrix" values="0 0 0 0 0.12549 0 0 0 0 0.317647 0 0 0 0 0.537255 0 0 0 0.06 0"/>
<feBlend mode="normal" in2="BackgroundImageFix" result="effect1_dropShadow_1_6127"/>
<feBlend mode="normal" in="SourceGraphic" in2="effect1_dropShadow_1_6127" result="shape"/>
</filter>
<filter id="filter5_d_1_6127" x="520" y="0" width="112" height="112" filterUnits="userSpaceOnUse" color-interpolation-filters="sRGB">
<feFlood flood-opacity="0" result="BackgroundImageFix"/>
<feColorMatrix in="SourceAlpha" type="matrix" values="0 0 0 0 0 0 0 0 0 0 0 0 0 0 0 0 0 0 127 0" result="hardAlpha"/>
<feOffset dy="10"/>
<feGaussianBlur stdDeviation="8"/>
<feComposite in2="hardAlpha" operator="out"/>
<feColorMatrix type="matrix" values="0 0 0 0 0.12549 0 0 0 0 0.317647 0 0 0 0 0.537255 0 0 0 0.06 0"/>
<feBlend mode="normal" in2="BackgroundImageFix" result="effect1_dropShadow_1_6127"/>
<feBlend mode="normal" in="SourceGraphic" in2="effect1_dropShadow_1_6127" result="shape"/>
</filter>
</defs>
</svg>
